<?xml version="1.0" standalone="no"?>
<!DOCTYPE svg PUBLIC "-//W3C//DTD SVG 20010904//EN"
 "http://www.w3.org/TR/2001/REC-SVG-20010904/DTD/svg10.dtd">
<svg version="1.0" xmlns="http://www.w3.org/2000/svg"
 width="500.000000pt" height="500.000000pt" viewBox="0 0 500.000000 500.000000"
 preserveAspectRatio="xMidYMid meet">

<g transform="translate(0.000000,500.000000) scale(0.100000,-0.100000)"
fill="#000000" stroke="none">
<path d="M2215 4653 c-876 -117 -1602 -762 -1820 -1617 -100 -394 -84 -833 46
-1221 48 -145 166 -388 245 -505 212 -317 507 -580 839 -747 428 -216 933
-284 1404 -188 114 23 396 109 405 124 3 5 -139 380 -148 389 -2 1 -55 -15
-118 -37 -215 -74 -299 -86 -578 -85 -214 0 -258 3 -343 22 -467 104 -853 368
-1110 757 -289 439 -363 1008 -197 1507 195 584 700 1034 1297 1157 397 81
781 32 1138 -147 773 -386 1147 -1276 884 -2099 -17 -53 -27 -98 -22 -102 12
-10 357 -151 370 -151 14 0 35 52 73 180 166 562 90 1193 -206 1698 -356 606
-979 1007 -1669 1072 -150 14 -357 11 -490 -7z"/>
<path d="M2250 4016 c-527 -95 -962 -437 -1165 -917 -147 -348 -160 -723 -39
-1089 170 -512 595 -891 1135 -1012 91 -20 131 -23 314 -23 250 0 362 19 561
96 l52 20 -35 87 c-53 132 -353 898 -413 1056 -49 130 -52 141 -39 165 33 58
42 56 387 -83 346 -141 646 -263 787 -321 50 -20 100 -41 112 -45 21 -9 24 -4
52 83 55 175 66 245 66 452 0 272 -39 457 -145 678 -101 214 -308 459 -499
592 -163 113 -372 205 -577 251 -96 22 -452 28 -554 10z m476 -322 c90 -15
230 -61 315 -104 163 -83 346 -241 451 -390 131 -186 214 -435 219 -660 2 -76
1 -82 -26 -110 -24 -25 -37 -30 -75 -30 -38 0 -51 5 -74 29 -26 27 -29 38 -37
143 -25 338 -210 633 -504 801 -114 66 -242 106 -407 127 -151 19 -180 33
-193 90 -9 42 18 98 57 115 37 17 135 13 274 -11z"/>
<path d="M2938 2119 c-10 -5 -18 -19 -18 -29 0 -23 162 -439 701 -1800 27 -68
55 -128 62 -132 21 -14 56 -9 66 9 5 10 36 151 70 313 34 162 77 363 94 445
l33 150 134 33 c633 152 760 185 770 198 7 7 10 24 6 37 -7 31 -16 35 -741
329 -176 72 -381 155 -455 185 -355 144 -682 273 -693 273 -6 0 -20 -5 -29
-11z"/>
</g>
</svg>
